<svg xmlns="http://www.w3.org/2000/svg" viewBox="0 40 120 112" fill="none">
  <defs>
    <linearGradient
      id="gh"
      x1="58.1267"
      y1="47.7922"
      x2="58.1267"
      y2="144.458"
      gradientUnits="userSpaceOnUse"
    >
      <stop stop-color="#7AA6C6"/>
      <stop offset="0.35" stop-color="#AFC7DC"/>
      <stop offset="0.60" stop-color="#D8E6F1"/>
      <stop offset="0.80" stop-color="#EEF4FA"/>
      <stop offset="0.95" stop-color="#FFFFFF"/>
      <stop offset="1" stop-color="#FFFFFF"/>
    </linearGradient>
  </defs>
  <!-- Front body: dual mirrored star (same as github-mascot) -->
  <path
    d="M44.3662 64.2642C50.49 53.2829 53.5495 47.7922 58.1267 47.7922C62.7038 47.7922 65.7633 53.2829 71.8872 64.2642L73.4725 67.1062C75.2125 70.2285 76.0825 71.7897 77.4358 72.8192C78.7892 73.8487 80.4808 74.2305 83.8642 74.9942L86.9382 75.6902C98.8282 78.3824 104.768 79.726 106.185 84.2742C107.596 88.8175 103.546 93.559 95.44 103.037L93.3423 105.488C91.0417 108.18 89.8865 109.528 89.3694 111.191C88.8522 112.859 89.0262 114.657 89.3742 118.248L89.6932 121.52C90.916 134.169 91.5298 140.491 87.8275 143.299C84.1252 146.107 78.5572 143.545 67.4308 138.422L64.5453 137.098C61.3843 135.638 59.8038 134.913 58.1267 134.913C56.4495 134.913 54.869 135.638 51.708 137.098L48.8273 138.422C37.6962 143.545 32.1282 146.107 28.4307 143.304C24.7235 140.491 25.3373 134.169 26.5602 121.52L26.8792 118.253C27.2272 114.657 27.4012 112.859 26.8792 111.196C26.3668 109.528 25.2117 108.18 22.911 105.493L20.8133 103.037C12.7078 93.5639 8.65751 88.8224 10.0688 84.2742C11.4802 79.726 17.43 78.3775 29.32 75.6902L32.394 74.9942C35.7725 74.2305 37.4593 73.8487 38.8175 72.8192C40.1757 71.7897 41.0408 70.2285 42.7808 67.1062L44.3662 64.2642Z"
    fill="url(#gh)"
  />
  <g transform="translate(116.2534 0) scale(-1 1)">
    <path
      d="M44.3662 64.2642C50.49 53.2829 53.5495 47.7922 58.1267 47.7922C62.7038 47.7922 65.7633 53.2829 71.8872 64.2642L73.4725 67.1062C75.2125 70.2285 76.0825 71.7897 77.4358 72.8192C78.7892 73.8487 80.4808 74.2305 83.8642 74.9942L86.9382 75.6902C98.8282 78.3824 104.768 79.726 106.185 84.2742C107.596 88.8175 103.546 93.559 95.44 103.037L93.3423 105.488C91.0417 108.18 89.8865 109.528 89.3694 111.191C88.8522 112.859 89.0262 114.657 89.3742 118.248L89.6932 121.52C90.916 134.169 91.5298 140.491 87.8275 143.299C84.1252 146.107 78.5572 143.545 67.4308 138.422L64.5453 137.098C61.3843 135.638 59.8038 134.913 58.1267 134.913C56.4495 134.913 54.869 135.638 51.708 137.098L48.8273 138.422C37.6962 143.545 32.1282 146.107 28.4307 143.304C24.7235 140.491 25.3373 134.169 26.5602 121.52L26.8792 118.253C27.2272 114.657 27.4012 112.859 26.8792 111.196C26.3668 109.528 25.2117 108.18 22.911 105.493L20.8133 103.037C12.7078 93.5639 8.65751 88.8224 10.0688 84.2742C11.4802 79.726 17.43 78.3775 29.32 75.6902L32.394 74.9942C35.7725 74.2305 37.4593 73.8487 38.8175 72.8192C40.1757 71.7897 41.0408 70.2285 42.7808 67.1062L44.3662 64.2642Z"
      fill="url(#gh)"
    />
  </g>
  <!-- Eyes -->
  <circle cx="40" cy="92" r="5" fill="#ffffff"/>
  <circle cx="76" cy="92" r="5" fill="#ffffff"/>
</svg>
